<svg width="527.41" height="99.779" viewBox="0 0 370 69.999" class="looka-1j8o68f"><path d="M66.58 0H3.419A3.42 3.42 0 0 0 0 3.418V66.58a3.42 3.42 0 0 0 3.419 3.418H66.58A3.42 3.42 0 0 0 70 66.579V3.42A3.42 3.42 0 0 0 66.58 0m.036 2.36a1.02 1.02 0 0 1 1.023 1.023v5.06a14.63 14.63 0 0 0-5.12-5.652c-.243-.157-.497-.29-.747-.431zm-63.233 0h43.536c-6.231 3.118-9.915 9.432-9.475 16.508a24.2 24.2 0 0 0-5.346-3.04c-6.897-2.826-15.806-4.903-29.738.746V3.383a1.02 1.02 0 0 1 1.023-1.024m18.641 48.066a4.9 4.9 0 0 0 2.913-2.39c.74-1.384.896-2.973.441-4.474s-1.468-2.737-2.852-3.476c-3.436-1.835-7.724-.536-9.56 2.9a8.5 8.5 0 0 0-.64 6.515 8.5 8.5 0 0 0 4.151 5.06c5.063 2.705 11.382.787 14.09-4.275 1.603-3 1.942-6.445.955-9.7s-3.184-5.93-6.183-7.534a15.54 15.54 0 0 0-11.913-1.174 15.53 15.53 0 0 0-9.252 7.595 19.4 19.4 0 0 0-1.813 4.871V18.99c13.68-5.772 22.28-3.808 28.894-1.098 5.947 2.436 10.498 7.317 12.811 13.744 2.676 7.432 2.03 16.064-1.725 23.09-5.611 10.494-18.713 14.468-29.207 8.86A16.93 16.93 0 0 1 4.86 53.501a16.93 16.93 0 0 1 1.279-12.98 13.32 13.32 0 0 1 7.933-6.511 13.32 13.32 0 0 1 10.215 1.007 10.44 10.44 0 0 1 5.1 6.214 10.44 10.44 0 0 1-.788 8.002c-2.127 3.978-7.095 5.485-11.072 3.36-1.49-.796-2.579-2.125-3.07-3.741s-.321-3.326.475-4.817a4.84 4.84 0 0 1 6.543-1.984 3.62 3.62 0 0 1 1.77 2.156 3.62 3.62 0 0 1-.274 2.776 2.67 2.67 0 0 1-1.593 1.308 2.67 2.67 0 0 1-2.051-.203l-1.052 1.967a4.9 4.9 0 0 0 3.75.37M3.382 67.637a1.02 1.02 0 0 1-1.024-1.023v-13.88a19.15 19.15 0 0 0 9.723 12.816 23.8 23.8 0 0 0 5.402 2.087zm63.233 0h-37.58c6.313-1.57 11.968-5.687 15.27-11.862 4.048-7.574 4.742-16.882 1.856-24.897-1.376-3.823-3.487-7.143-6.174-9.812-1.74-8.487 3.343-16.25 11.902-18.108 3.264-.706 6.611-.102 9.422 1.706s4.748 4.603 5.456 7.867c1.143 5.274-2.215 10.495-7.488 11.639-4.1.893-8.156-1.722-9.046-5.82a5.87 5.87 0 0 1 4.487-6.97 4.43 4.43 0 0 1 3.363.608 4.45 4.45 0 0 1 1.949 2.81 3.33 3.33 0 0 1-.458 2.522 3.33 3.33 0 0 1-2.109 1.46 2.45 2.45 0 0 1-1.848-.334 2.44 2.44 0 0 1-1.072-1.546 1.73 1.73 0 0 1 .238-1.313c.251-.391.64-.66 1.097-.76a1.166 1.166 0 0 1 1.391.896l2.179-.473a3.38 3.38 0 0 0-1.482-2.138 3.37 3.37 0 0 0-2.562-.463 3.94 3.94 0 0 0-2.498 1.73 3.93 3.93 0 0 0-.54 2.993 4.66 4.66 0 0 0 2.043 2.947 4.64 4.64 0 0 0 3.528.639 5.54 5.54 0 0 0 3.51-2.433 5.55 5.55 0 0 0 .761-4.2 6.65 6.65 0 0 0-2.92-4.213 6.65 6.65 0 0 0-5.043-.912c-4.36.945-7.137 5.26-6.192 9.621 1 4.601 5.083 7.752 9.61 7.751.688 0 1.388-.073 2.088-.225 3.471-.752 6.255-2.95 7.885-5.82v46.088a1.02 1.02 0 0 1-1.023 1.022" xmlns="http://www.w3.org/2000/svg"/><path d="m129.386 23.426-3.204 2.393q-2.609-3.425-6.289-5.177t-8.08-1.752q-4.837 0-8.937 2.308t-6.37 6.209-2.27 8.787q0 7.36 5.054 11.857t12.74 4.495q8.475 0 14.152-6.628l3.204 2.417q-3.015 3.83-7.524 5.922t-10.05 2.091q-10.594 0-16.705-7.037Q90 43.364 90 35.841q0-8.83 6.206-14.887t15.523-6.053q5.652 0 10.2 2.24t7.457 6.288m7.388-8.642h3.858v16.87q2.309-3.07 5.093-4.59t6.044-1.524q3.366 0 5.95 1.697t3.802 4.55 1.224 8.993v15.318h-3.805V41.896q0-5.16-.434-6.898-.706-2.963-2.581-4.443t-4.915-1.48q-3.477 0-6.236 2.295t-3.624 5.691q-.518 2.173-.518 8.122v10.92h-3.858zM172.25 14q1.304 0 2.242.923t.937 2.226-.937 2.241-2.242.938-2.226-.938-.926-2.239.926-2.228T172.25 14m-1.9 12.25h3.83v29.798h-3.833zm22.491 25.59q-2.826 1.521-5.543.244-3.313-2.528-3.149-7.198V32.28h7.062v-3.285h-7.093v-14.4h-3.855v30.939q-.055 3.26 1.494 5.975 2.553 4.32 6.954 4.564 2.336.084 5.324-1.057-.462-1.143-1.196-3.18m5.84-9.426v-3.588q.435-2.687 1.25-4.37 1.9-4.673 5.104-6.845t5.326-2.175q1.575 0 3.366 1.035l-1.98 3.204q-2.529-.924-5.013 1.494t-3.438 5.268q-.703 2.528-.703 9.482v10.077h-3.914zm32.378-17.629q6.87 0 11.407 4.97 4.183 4.537 4.183 10.785.056 15.429 0 15.673H242.6v-6.761q-3.177 5.924-11.543 6.628-6.846 0-11.18-4.66t-4.33-10.875q0-6.194 4.1-10.759 4.536-4.998 11.41-4.998m0 3.75q-4.757 0-8.178 3.532t-3.421 8.528q0 3.232 1.752 6.22t5.936 5.053q10.486 2.337 14.909-9.535.247-3.802-.812-7.279-.76-1.577-2.092-2.987-3.34-3.533-8.094-3.533m22.98-13.799h3.856v23.523l13.774-12.005h5.646L264.847 37.58l13.42 18.47h-5.432l-11.738-16.025-3.204 2.634V56.05h-3.85zm42.238 10.05q6.87 0 11.41 4.97 4.183 4.537 4.183 10.784.056 15.43 0 15.674h-4.047v-6.764q-3.18 5.924-11.543 6.628-6.848 0-11.182-4.66t-4.33-10.875q0-6.194 4.102-10.759 4.534-4.998 11.407-4.998m0 3.75q-4.754 0-8.178 3.532t-3.421 8.528q0 3.232 1.752 6.22t5.936 5.053q10.486 2.337 14.912-9.535.245-3.802-.815-7.279-.76-1.577-2.092-2.987-3.338-3.533-8.094-3.533m37.105-3.75q6.87 0 11.41 4.971 4.18 4.537 4.18 10.784.056 15.43 0 15.674h-4.046v-6.764q-3.177 5.924-11.544 6.628-6.845 0-11.179-4.66t-4.33-10.875q0-6.194 4.1-10.759 4.536-4.998 11.41-4.998m0 3.75q-4.754 0-8.178 3.532t-3.422 8.528q0 3.232 1.753 6.22t5.936 5.053q10.486 2.337 14.911-9.535.245-3.802-.815-7.279-.759-1.577-2.091-2.987-3.341-3.533-8.095-3.533m21.568 13.88v-3.588q.434-2.687 1.252-4.37 1.9-4.673 5.104-6.845t5.324-2.175q1.577 0 3.368 1.034l-1.983 3.205q-2.526-.924-5.012 1.493t-3.435 5.269q-.707 2.528-.707 9.482v10.077h-3.91z"/></svg>